<mxfile host="app.diagrams.net" modified="2024-03-30T17:36:13.605Z" agent="Mozilla/5.0 (Windows NT 10.0; Win64; x64) AppleWebKit/537.36 (KHTML, like Gecko) Chrome/123.0.0.0 Safari/537.36" etag="w76h_eXWmWP2QTRqNp21" version="24.2.1" type="google">
  <diagram name="Page-1" id="e7e014a7-5840-1c2e-5031-d8a46d1fe8dd">
    <mxGraphModel grid="1" page="1" gridSize="10" guides="1" tooltips="1" connect="1" arrows="1" fold="1" pageScale="1" pageWidth="1169" pageHeight="826" background="none" math="0" shadow="0">
      <root>
        <mxCell id="0" />
        <mxCell id="1" parent="0" />
        <mxCell id="2" value="Administrador" style="swimlane;whiteSpace=wrap" vertex="1" parent="1">
          <mxGeometry x="164.5" y="128" width="280" height="570" as="geometry" />
        </mxCell>
        <mxCell id="5" value="" style="ellipse;shape=startState;fillColor=#000000;strokeColor=#ff0000;" vertex="1" parent="2">
          <mxGeometry x="100" y="40" width="30" height="30" as="geometry" />
        </mxCell>
        <mxCell id="6" value="" style="edgeStyle=elbowEdgeStyle;elbow=horizontal;verticalAlign=bottom;endArrow=open;endSize=8;strokeColor=#FF0000;endFill=1;rounded=0" edge="1" parent="2" source="5" target="7">
          <mxGeometry x="100" y="40" as="geometry">
            <mxPoint x="115" y="110" as="targetPoint" />
          </mxGeometry>
        </mxCell>
        <mxCell id="7" value="Iniciar sesiÃ³n con la cuenta de administrador" style="" vertex="1" parent="2">
          <mxGeometry y="110" width="250" height="50" as="geometry" />
        </mxCell>
        <mxCell id="8" value="Acceder al registro de usuario" style="" vertex="1" parent="2">
          <mxGeometry x="30" y="220" width="170" height="50" as="geometry" />
        </mxCell>
        <mxCell id="9" value="" style="endArrow=open;strokeColor=#FF0000;endFill=1;rounded=0" edge="1" parent="2" target="8">
          <mxGeometry relative="1" as="geometry">
            <mxPoint x="115.5" y="162" as="sourcePoint" />
          </mxGeometry>
        </mxCell>
        <mxCell id="jFUnhI5cUvXAIdotuBqz-44" value="" style="ellipse;html=1;shape=endState;fillColor=#000000;strokeColor=#ff0000;" vertex="1" parent="2">
          <mxGeometry x="100" y="332" width="30" height="30" as="geometry" />
        </mxCell>
        <mxCell id="3" value="Sistema" style="swimlane;whiteSpace=wrap" vertex="1" parent="1">
          <mxGeometry x="444.5" y="128" width="290" height="570" as="geometry" />
        </mxCell>
        <mxCell id="10" value="Mostrar lista de usuarios registrados" style="" vertex="1" parent="3">
          <mxGeometry x="42.5" y="70" width="194.5" height="50" as="geometry" />
        </mxCell>
        <mxCell id="jFUnhI5cUvXAIdotuBqz-42" value="Mostrar los datos de cada uno de&#xa;los usuarios registrados" style="" vertex="1" parent="3">
          <mxGeometry x="45.5" y="192" width="190" height="50" as="geometry" />
        </mxCell>
        <mxCell id="jFUnhI5cUvXAIdotuBqz-41" value="" style="endArrow=open;strokeColor=#FF0000;endFill=1;rounded=0;exitX=0.5;exitY=1;exitDx=0;exitDy=0;entryX=0.5;entryY=0;entryDx=0;entryDy=0;" edge="1" parent="3" source="10" target="jFUnhI5cUvXAIdotuBqz-42">
          <mxGeometry relative="1" as="geometry">
            <mxPoint x="-154.5" y="172" as="sourcePoint" />
            <mxPoint x="139.5" y="192" as="targetPoint" />
          </mxGeometry>
        </mxCell>
        <mxCell id="11" value="" style="endArrow=open;strokeColor=#FF0000;endFill=1;rounded=0;exitX=1;exitY=0.5;exitDx=0;exitDy=0;entryX=0;entryY=0.5;entryDx=0;entryDy=0;" edge="1" parent="1" source="8" target="10">
          <mxGeometry relative="1" as="geometry">
            <mxPoint x="500" y="230" as="targetPoint" />
            <Array as="points">
              <mxPoint x="460" y="373" />
              <mxPoint x="460" y="223" />
            </Array>
          </mxGeometry>
        </mxCell>
        <mxCell id="jFUnhI5cUvXAIdotuBqz-43" value="" style="endArrow=open;strokeColor=#FF0000;endFill=1;rounded=0;exitX=0.5;exitY=1;exitDx=0;exitDy=0;entryX=1;entryY=0.5;entryDx=0;entryDy=0;" edge="1" parent="1" source="jFUnhI5cUvXAIdotuBqz-42" target="jFUnhI5cUvXAIdotuBqz-44">
          <mxGeometry relative="1" as="geometry">
            <mxPoint x="594.5" y="258" as="sourcePoint" />
            <mxPoint x="320" y="480" as="targetPoint" />
            <Array as="points">
              <mxPoint x="585" y="475" />
            </Array>
          </mxGeometry>
        </mxCell>
      </root>
    </mxGraphModel>
  </diagram>
</mxfile>
